<svg width="24" height="24" viewBox="0 0 24 24" fill="none" xmlns="http://www.w3.org/2000/svg">
<path d="M9.02488 10.8744C8.92636 10.8644 8.80813 10.8644 8.69975 10.8744C6.35482 10.7944 4.49268 8.84361 4.49268 6.44269C4.49268 3.99174 6.4435 2.00098 8.86724 2.00098C11.2811 2.00098 13.2418 3.99174 13.2418 6.44269C13.232 8.84361 11.3698 10.7944 9.02488 10.8744Z" stroke="black" stroke-width="1.5" stroke-linecap="round" stroke-linejoin="round"/>
<path d="M16.1681 4.00146C18.0795 4.00146 19.6165 5.57207 19.6165 7.50281C19.6165 9.39354 18.1386 10.9341 16.2962 11.0042C16.2174 10.9942 16.1287 10.9942 16.04 11.0042" stroke="black" stroke-width="1.5" stroke-linecap="round" stroke-linejoin="round"/>
<path d="M4.0988 14.5654C1.71446 16.186 1.71446 18.8271 4.0988 20.4377C6.80827 22.2784 11.2518 22.2784 13.9613 20.4377C16.3456 18.817 16.3456 16.176 13.9613 14.5654C11.2617 12.7347 6.81812 12.7347 4.0988 14.5654Z" stroke="black" stroke-width="1.5" stroke-linecap="round" stroke-linejoin="round"/>
<path d="M18.0698 20.0077C18.7792 19.8576 19.4492 19.5675 20.0009 19.1373C21.5379 17.9669 21.5379 16.0362 20.0009 14.8657C19.459 14.4455 18.7989 14.1654 18.0994 14.0054" stroke="black" stroke-width="1.5" stroke-linecap="round" stroke-linejoin="round"/>
</svg>
