<svg width="22" height="20" viewBox="0 0 22 20" fill="none" xmlns="http://www.w3.org/2000/svg">
<path d="M15.0288 0H6.44089C2.88874 0 0 2.83372 0 6.31822V18.9547C0 19.5359 0.479847 20.0077 1.07348 20.0077H15.0288C18.5809 20.0077 21.4696 17.174 21.4696 13.6895V6.31822C21.4696 2.83372 18.5809 0 15.0288 0ZM19.3227 13.6895C19.3227 16.0125 17.3969 17.9016 15.0288 17.9016H2.14696V6.31822C2.14696 3.99522 4.07279 2.10607 6.44089 2.10607H15.0288C17.3969 2.10607 19.3227 3.99522 19.3227 6.31822V13.6895Z" fill="black"/>
<path d="M8.05065 11.5829C8.93996 11.5829 9.66088 10.8757 9.66088 10.0034C9.66088 9.13102 8.93996 8.42383 8.05065 8.42383C7.16135 8.42383 6.44043 9.13102 6.44043 10.0034C6.44043 10.8757 7.16135 11.5829 8.05065 11.5829Z" fill="black"/>
<path d="M13.4178 11.5829C14.3071 11.5829 15.0281 10.8757 15.0281 10.0034C15.0281 9.13102 14.3071 8.42383 13.4178 8.42383C12.5285 8.42383 11.8076 9.13102 11.8076 10.0034C11.8076 10.8757 12.5285 11.5829 13.4178 11.5829Z" fill="black"/>
</svg>
