<svg width="22" height="21" viewBox="0 0 22 21" fill="none" xmlns="http://www.w3.org/2000/svg">
<path d="M15.3999 0H6.59998C2.96009 0 0 2.90371 0 6.47428V19.4228C0 20.0185 0.491698 20.5019 1.1 20.5019H15.3999C19.0398 20.5019 21.9999 17.5982 21.9999 14.0276V6.47428C21.9999 2.90371 19.0398 0 15.3999 0ZM19.7999 14.0276C19.7999 16.408 17.8265 18.3438 15.3999 18.3438H2.19999V6.47428C2.19999 4.0939 4.17338 2.15809 6.59998 2.15809H15.3999C17.8265 2.15809 19.7999 4.0939 19.7999 6.47428V14.0276Z" fill="black"/>
<path d="M8.24949 11.869C9.16076 11.869 9.89949 11.1444 9.89949 10.2505C9.89949 9.35654 9.16076 8.63189 8.24949 8.63189C7.33823 8.63189 6.5995 9.35654 6.5995 10.2505C6.5995 11.1444 7.33823 11.869 8.24949 11.869Z" fill="black"/>
<path d="M13.7492 11.869C14.6605 11.869 15.3992 11.1444 15.3992 10.2505C15.3992 9.35654 14.6605 8.63189 13.7492 8.63189C12.838 8.63189 12.0992 9.35654 12.0992 10.2505C12.0992 11.1444 12.838 11.869 13.7492 11.869Z" fill="black"/>
</svg>
