<svg width="20" height="20" viewBox="0 0 20 20" fill="none" xmlns="http://www.w3.org/2000/svg">
<path d="M13.7937 0H5.91158C2.65134 0 0 2.83372 0 6.31822V18.9547C0 19.5359 0.440412 20.0077 0.985263 20.0077H13.7937C17.0539 20.0077 19.7053 17.174 19.7053 13.6895V6.31822C19.7053 2.83372 17.0539 0 13.7937 0ZM17.7347 13.6895C17.7347 16.0125 15.9672 17.9016 13.7937 17.9016H1.97053V6.31822C1.97053 3.99522 3.73809 2.10607 5.91158 2.10607H13.7937C15.9672 2.10607 17.7347 3.99522 17.7347 6.31822V13.6895Z" fill="black"/>
<path d="M7.38976 11.5825C8.20598 11.5825 8.86765 10.8753 8.86765 10.0029C8.86765 9.13053 8.20598 8.42334 7.38976 8.42334C6.57354 8.42334 5.91187 9.13053 5.91187 10.0029C5.91187 10.8753 6.57354 11.5825 7.38976 11.5825Z" fill="black"/>
<path d="M12.3163 11.5825C13.1325 11.5825 13.7942 10.8753 13.7942 10.0029C13.7942 9.13053 13.1325 8.42334 12.3163 8.42334C11.5001 8.42334 10.8384 9.13053 10.8384 10.0029C10.8384 10.8753 11.5001 11.5825 12.3163 11.5825Z" fill="black"/>
</svg>
