<svg width="26" height="24" viewBox="0 0 26 24" fill="none" xmlns="http://www.w3.org/2000/svg">
<rect width="25.7636" height="23.2089" fill="white"/>
<path fill-rule="evenodd" clip-rule="evenodd" d="M4.83069 3.86816C4.53425 3.86816 4.29395 4.08464 4.29395 4.35168V20.7913C4.29395 21.0583 4.53425 21.2748 4.83069 21.2748H20.9329C21.2294 21.2748 21.4697 21.0583 21.4697 20.7913C21.4697 20.5243 21.2294 20.3078 20.9329 20.3078H5.36743V4.35168C5.36743 4.08464 5.12712 3.86816 4.83069 3.86816Z" fill="black"/>
<path fill-rule="evenodd" clip-rule="evenodd" d="M8.58739 2.4176C8.58739 2.15056 8.8277 1.93408 9.12414 1.93408C9.42057 1.93408 9.66088 2.15056 9.66088 2.4176V3.86816H11.8078V2.4176C11.8078 2.15056 12.0481 1.93408 12.3446 1.93408C12.641 1.93408 12.8813 2.15056 12.8813 2.4176V3.86816H15.0283V2.4176C15.0283 2.15056 15.2686 1.93408 15.565 1.93408C15.8615 1.93408 16.1018 2.15056 16.1018 2.4176V3.86816H18.2487V2.4176C18.2487 2.15056 18.489 1.93408 18.7855 1.93408C19.0819 1.93408 19.3222 2.15056 19.3222 2.4176V3.86816H20.3957C20.9886 3.86816 21.4692 4.30111 21.4692 4.83519V18.3737C21.4692 18.9078 20.9886 19.3407 20.3957 19.3407H7.51391C6.92104 19.3407 6.44043 18.9078 6.44043 18.3737V4.83519C6.44043 4.30111 6.92104 3.86816 7.51391 3.86816H8.58739V2.4176ZM18.7855 4.83519H15.565H12.3446H9.12414H7.51391V18.3737H20.3957V4.83519H18.7855Z" fill="black"/>
</svg>
