<svg width="24" height="24" viewBox="0 0 24 24" fill="none" xmlns="http://www.w3.org/2000/svg">
<path fill-rule="evenodd" clip-rule="evenodd" d="M4.43379 3.86816C4.16172 3.86816 3.94116 4.08464 3.94116 4.35168V20.7913C3.94116 21.0583 4.16172 21.2748 4.43379 21.2748H19.2127C19.4848 21.2748 19.7054 21.0583 19.7054 20.7913C19.7054 20.5243 19.4848 20.3078 19.2127 20.3078H4.92642V4.35168C4.92642 4.08464 4.70587 3.86816 4.43379 3.86816Z" fill="black"/>
<path fill-rule="evenodd" clip-rule="evenodd" d="M7.88215 2.4176C7.88215 2.15056 8.10271 1.93408 8.37478 1.93408C8.64685 1.93408 8.86741 2.15056 8.86741 2.4176V3.86816H10.8379V2.4176C10.8379 2.15056 11.0585 1.93408 11.3306 1.93408C11.6026 1.93408 11.8232 2.15056 11.8232 2.4176V3.86816H13.7937V2.4176C13.7937 2.15056 14.0143 1.93408 14.2864 1.93408C14.5584 1.93408 14.779 2.15056 14.779 2.4176V3.86816H16.7495V2.4176C16.7495 2.15056 16.9701 1.93408 17.2421 1.93408C17.5142 1.93408 17.7348 2.15056 17.7348 2.4176V3.86816H18.72C19.2642 3.86816 19.7053 4.30111 19.7053 4.83519V18.3737C19.7053 18.9078 19.2642 19.3407 18.72 19.3407H6.89688C6.35274 19.3407 5.91162 18.9078 5.91162 18.3737V4.83519C5.91162 4.30111 6.35274 3.86816 6.89688 3.86816H7.88215V2.4176ZM17.2421 4.83519H14.2864H11.3306H8.37478H6.89688V18.3737H18.72V4.83519H17.2421Z" fill="black"/>
</svg>
