<svg width="26" height="24" viewBox="0 0 26 24" fill="none" xmlns="http://www.w3.org/2000/svg">
<rect width="25.7636" height="23.2089" transform="scale(1.00917)" fill="white"/>
<path fill-rule="evenodd" clip-rule="evenodd" d="M4.875 3.90365C4.57584 3.90365 4.33333 4.12211 4.33333 4.3916V20.982C4.33333 21.2515 4.57584 21.47 4.875 21.47H21.1249C21.4241 21.47 21.6666 21.2515 21.6666 20.982C21.6666 20.7125 21.4241 20.4941 21.1249 20.4941H5.41666V4.3916C5.41666 4.12211 5.17415 3.90365 4.875 3.90365Z" fill="black"/>
<path fill-rule="evenodd" clip-rule="evenodd" d="M8.66617 2.43978C8.66617 2.17029 8.90868 1.95182 9.20783 1.95182C9.50698 1.95182 9.7495 2.17029 9.7495 2.43978V3.90364H11.9162V2.43978C11.9162 2.17029 12.1587 1.95182 12.4578 1.95182C12.757 1.95182 12.9995 2.17029 12.9995 2.43978V3.90364H15.1661V2.43978C15.1661 2.17029 15.4087 1.95182 15.7078 1.95182C16.007 1.95182 16.2495 2.17029 16.2495 2.43978V3.90364H18.4161V2.43978C18.4161 2.17029 18.6586 1.95182 18.9578 1.95182C19.2569 1.95182 19.4995 2.17029 19.4995 2.43978V3.90364H20.5828C21.1811 3.90364 21.6661 4.34057 21.6661 4.87954V18.5422C21.6661 19.0812 21.1811 19.5181 20.5828 19.5181H7.58284C6.98453 19.5181 6.49951 19.0812 6.49951 18.5422V4.87954C6.49951 4.34057 6.98453 3.90364 7.58284 3.90364H8.66617V2.43978ZM18.9578 4.87954H15.7078H12.4578H9.20783H7.58284V18.5422H20.5828V4.87954H18.9578Z" fill="black"/>
</svg>
