<svg width="26" height="25" viewBox="0 0 26 25" fill="none" xmlns="http://www.w3.org/2000/svg">
<path d="M9.92274 10.9741C9.81441 10.964 9.68441 10.964 9.56524 10.9741C6.98692 10.8934 4.93943 8.92473 4.93943 6.50179C4.93943 4.02836 7.08442 2.01933 9.74941 2.01933C12.4036 2.01933 14.5594 4.02836 14.5594 6.50179C14.5486 8.92473 12.5011 10.8934 9.92274 10.9741Z" stroke="black" stroke-width="1.5" stroke-linecap="round" stroke-linejoin="round"/>
<path d="M17.7777 4.03817C19.8794 4.03817 21.5694 5.62318 21.5694 7.57164C21.5694 9.47971 19.9444 11.0344 17.9185 11.1051C17.8319 11.095 17.7344 11.095 17.6369 11.1051" stroke="black" stroke-width="1.5" stroke-linecap="round" stroke-linejoin="round"/>
<path d="M4.50691 14.699C1.88526 16.3345 1.88526 18.9998 4.50691 20.6251C7.48607 22.4827 12.3719 22.4827 15.351 20.6251C17.9727 18.9897 17.9727 16.3244 15.351 14.699C12.3827 12.8515 7.4969 12.8515 4.50691 14.699Z" stroke="black" stroke-width="1.5" stroke-linecap="round" stroke-linejoin="round"/>
<path d="M19.8681 20.1912C20.6481 20.0398 21.3848 19.747 21.9914 19.3129C23.6814 18.1317 23.6814 16.1833 21.9914 15.0021C21.3956 14.578 20.6698 14.2954 19.9006 14.1338" stroke="black" stroke-width="1.5" stroke-linecap="round" stroke-linejoin="round"/>
</svg>
