<svg width="26" height="25" viewBox="0 0 26 25" fill="none" xmlns="http://www.w3.org/2000/svg">
<path d="M10.8877 2.55419L4.36601 6.52177C2.27519 7.79382 2.27519 10.6408 4.36601 11.9128L10.8877 15.8804C12.0577 16.5972 13.986 16.5972 15.156 15.8804L21.6451 11.9128C23.7251 10.6408 23.7251 7.80391 21.6451 6.53186L15.156 2.56429C13.986 1.8374 12.0577 1.8374 10.8877 2.55419Z" stroke="black" stroke-width="1.5" stroke-linecap="round" stroke-linejoin="round"/>
<path d="M6.09938 13.205L6.08855 17.9398C6.08855 19.222 7.15021 20.595 8.4502 20.9988L11.906 22.0689C12.5019 22.2507 13.4877 22.2507 14.0943 22.0689L17.5502 20.9988C18.8502 20.595 19.9118 19.222 19.9118 17.9398V13.2555" stroke="black" stroke-width="1.5" stroke-linecap="round" stroke-linejoin="round"/>
<path d="M23.1834 15.1434V9.08601" stroke="black" stroke-width="1.5" stroke-linecap="round" stroke-linejoin="round"/>
</svg>
