<svg width="24" height="24" viewBox="0 0 24 24" fill="none" xmlns="http://www.w3.org/2000/svg">
<path d="M9.90188 2.53097L3.9706 6.46249C2.06904 7.72297 2.06904 10.5441 3.9706 11.8045L9.90188 15.7361C10.966 16.4463 12.7197 16.4463 13.7838 15.7361L19.6855 11.8045C21.5772 10.5441 21.5772 7.73298 19.6855 6.47249L13.7838 2.54098C12.7197 1.8207 10.966 1.8207 9.90188 2.53097Z" stroke="black" stroke-width="1.5" stroke-linecap="round" stroke-linejoin="round"/>
<path d="M5.54696 13.085L5.53711 17.7768C5.53711 19.0473 6.50267 20.4078 7.68498 20.8079L10.828 21.8683C11.3699 22.0484 12.2665 22.0484 12.8182 21.8683L15.9612 20.8079C17.1435 20.4078 18.1091 19.0473 18.1091 17.7768V13.135" stroke="black" stroke-width="1.5" stroke-linecap="round" stroke-linejoin="round"/>
<path d="M21.0845 15.0057V9.00342" stroke="black" stroke-width="1.5" stroke-linecap="round" stroke-linejoin="round"/>
</svg>
