<svg width="26" height="24" viewBox="0 0 26 24" fill="none" xmlns="http://www.w3.org/2000/svg">
<path d="M10.7887 2.53097L4.32633 6.46249C2.25451 7.72297 2.25451 10.5441 4.32633 11.8045L10.7887 15.7361C11.9481 16.4463 13.8589 16.4463 15.0182 15.7361L21.4484 11.8045C23.5095 10.5441 23.5095 7.73298 21.4484 6.47249L15.0182 2.54098C13.8589 1.8207 11.9481 1.8207 10.7887 2.53097Z" stroke="black" stroke-width="1.5" stroke-linecap="round" stroke-linejoin="round"/>
<path d="M6.04394 13.085L6.0332 17.7768C6.0332 19.0473 7.08522 20.4078 8.3734 20.8079L11.7978 21.8683C12.3882 22.0484 13.3651 22.0484 13.9662 21.8683L17.3906 20.8079C18.6788 20.4078 19.7308 19.0473 19.7308 17.7768V13.135" stroke="black" stroke-width="1.5" stroke-linecap="round" stroke-linejoin="round"/>
<path d="M22.9727 15.0057V9.00342" stroke="black" stroke-width="1.5" stroke-linecap="round" stroke-linejoin="round"/>
</svg>
