<svg width="26" height="24" viewBox="0 0 26 24" fill="none" xmlns="http://www.w3.org/2000/svg">
<path d="M9.83255 10.8744C9.7252 10.8644 9.59638 10.8644 9.4783 10.8744C6.92341 10.7944 4.89453 8.84361 4.89453 6.44269C4.89453 3.99174 7.02003 2.00098 9.66079 2.00098C12.2908 2.00098 14.4271 3.99174 14.4271 6.44269C14.4163 8.84361 12.3874 10.7944 9.83255 10.8744Z" stroke="black" stroke-width="1.5" stroke-linecap="round" stroke-linejoin="round"/>
<path d="M17.6161 4.00146C19.6987 4.00146 21.3733 5.57207 21.3733 7.50281C21.3733 9.39354 19.7631 10.9341 17.7557 11.0042C17.6698 10.9942 17.5732 10.9942 17.4766 11.0042" stroke="black" stroke-width="1.5" stroke-linecap="round" stroke-linejoin="round"/>
<path d="M4.46595 14.5654C1.86812 16.186 1.86812 18.8271 4.46595 20.4377C7.41803 22.2784 12.2594 22.2784 15.2115 20.4377C17.8093 18.817 17.8093 16.176 15.2115 14.5654C12.2702 12.7347 7.42876 12.7347 4.46595 14.5654Z" stroke="black" stroke-width="1.5" stroke-linecap="round" stroke-linejoin="round"/>
<path d="M19.6875 20.0077C20.4604 19.8576 21.1904 19.5675 21.7915 19.1373C23.4662 17.9669 23.4662 16.0362 21.7915 14.8657C21.2011 14.4455 20.4819 14.1654 19.7197 14.0054" stroke="black" stroke-width="1.5" stroke-linecap="round" stroke-linejoin="round"/>
</svg>
